<svg width="60" height="60" viewBox="0 0 60 60" fill="none" xmlns="http://www.w3.org/2000/svg">
<path d="M50 51.25H10C7.25 51.25 5 49 5 46.25V13.75C5 11 7.25 8.75 10 8.75H50C52.75 8.75 55 11 55 13.75V46.25C55 49 52.75 51.25 50 51.25Z" fill="#8CBCD6"/>
<path d="M43.75 23.75C45.8211 23.75 47.5 22.0711 47.5 20C47.5 17.9289 45.8211 16.25 43.75 16.25C41.6789 16.25 40 17.9289 40 20C40 22.0711 41.6789 23.75 43.75 23.75Z" fill="#B3DDF5"/>
<path d="M25 20L11.25 40H38.75L25 20Z" fill="#9AC9E3"/>
<path d="M38.75 27.5L28.75 40H48.75L38.75 27.5Z" fill="#B3DDF5"/>
<path d="M47.5 60C54.4036 60 60 54.4036 60 47.5C60 40.5964 54.4036 35 47.5 35C40.5964 35 35 40.5964 35 47.5C35 54.4036 40.5964 60 47.5 60Z" fill="#3E6930"/>
<path d="M50 40H45V55H50V40Z" fill="white"/>
<path d="M55 45H40V50H55V45Z" fill="white"/>
</svg>
