<svg width="67" height="67" viewBox="0 0 67 67" fill="none" xmlns="http://www.w3.org/2000/svg">
<path d="M58.625 41.875V52.8462C58.6335 53.6528 58.4672 54.4517 58.1374 55.1879C57.8076 55.924 57.3223 56.58 56.7147 57.1106C56.1071 57.6412 55.3918 58.0339 54.618 58.2616C53.8442 58.4893 53.0302 58.5466 52.2321 58.4296C41.1686 57.0084 30.8924 51.9465 23.0228 44.0415C15.1531 36.1364 10.1374 25.8377 8.76581 14.7679C8.64918 13.9721 8.70584 13.1606 8.93192 12.3887C9.15801 11.6169 9.54817 10.903 10.0757 10.2959C10.6033 9.68887 11.2557 9.20293 11.9885 8.87139C12.7212 8.53984 13.517 8.37051 14.3212 8.375H25.125C25.8151 8.37081 26.4823 8.62241 26.9979 9.08124C27.5134 9.54008 27.8407 10.1736 27.9166 10.8596C28.1937 14.5183 29.1399 18.095 30.7083 21.4121C30.9773 22.0403 31.0064 22.7453 30.7903 23.3936C30.5743 24.0419 30.1279 24.5884 29.5358 24.9296L27.135 26.2975C26.7889 26.4878 26.4872 26.7494 26.2497 27.065C26.0122 27.3806 25.8444 27.7429 25.7573 28.1281C25.6703 28.5134 25.6659 28.9127 25.7446 29.2997C25.8233 29.6867 25.9832 30.0527 26.2137 30.3733C28.9756 34.419 32.4693 37.9127 36.515 40.6746C36.8356 40.9051 37.2016 41.065 37.5886 41.1437C37.9756 41.2224 38.3749 41.218 38.7602 41.131C39.1454 41.0439 39.5077 40.8761 39.8233 40.6386C40.1389 40.4011 40.4005 40.0994 40.5908 39.7533L41.9587 37.3525C42.3203 36.7527 42.8941 36.3106 43.5664 36.1141C44.2386 35.9176 44.9602 35.981 45.5879 36.2917C48.9049 37.8601 52.4817 38.8063 56.1404 39.0833C56.8264 39.1592 57.4599 39.4865 57.9187 40.0021C58.3776 40.5176 58.6292 41.1849 58.625 41.875Z" fill="white"/>
<path d="M44.6667 25.125C44.2993 25.1271 43.9351 25.0567 43.5949 24.9178C43.2548 24.7788 42.9454 24.5741 42.6846 24.3154C42.4229 24.0559 42.2153 23.7471 42.0735 23.4069C41.9318 23.0667 41.8588 22.7019 41.8588 22.3333C41.8588 21.9648 41.9318 21.5999 42.0735 21.2597C42.2153 20.9195 42.4229 20.6108 42.6846 20.3512L56.6429 6.39291C57.1686 5.86722 57.8816 5.5719 58.625 5.5719C59.3684 5.5719 60.0814 5.86722 60.6071 6.39291C61.1328 6.91859 61.4281 7.63156 61.4281 8.37499C61.4281 9.11841 61.1328 9.83139 60.6071 10.3571L46.6488 24.3154C46.3879 24.5741 46.0785 24.7788 45.7384 24.9178C45.3983 25.0567 45.0341 25.1271 44.6667 25.125Z" fill="white"/>
<path d="M58.625 25.125H44.6667C43.9263 25.125 43.2162 24.8309 42.6927 24.3074C42.1691 23.7838 41.875 23.0737 41.875 22.3333V8.37501C41.875 7.63461 42.1691 6.92454 42.6927 6.401C43.2162 5.87746 43.9263 5.58334 44.6667 5.58334C45.4071 5.58334 46.1171 5.87746 46.6407 6.401C47.1642 6.92454 47.4583 7.63461 47.4583 8.37501V19.5417H58.625C59.3654 19.5417 60.0755 19.8358 60.599 20.3593C61.1225 20.8829 61.4167 21.5929 61.4167 22.3333C61.4167 23.0737 61.1225 23.7838 60.599 24.3074C60.0755 24.8309 59.3654 25.125 58.625 25.125Z" fill="white"/>
</svg>
