<svg width="28" height="28" viewBox="0 0 28 28" fill="none" xmlns="http://www.w3.org/2000/svg">
<path d="M17.2081 7.21805C17.6583 7.16176 18.1085 7.49945 18.1085 7.94973L19.5718 21.8513C19.6281 22.3015 19.2904 22.7518 18.8402 22.7518L4.99492 24.215C4.54465 24.2713 4.09443 23.9336 4.09443 23.4834L2.63114 9.63813C2.57485 9.18785 2.91254 8.73764 3.36281 8.73764L17.2081 7.21805Z" stroke="#3E6930" stroke-width="1.25" stroke-linecap="round" stroke-linejoin="round"/>
<path d="M7.52761 11.0453C6.51454 11.1579 5.72663 12.0584 5.83915 13.1278C5.95174 14.1409 6.85223 14.9288 7.92159 14.8162C8.93467 14.7037 9.72258 13.8032 9.61005 12.7338C9.49753 11.6644 8.54069 10.9328 7.52761 11.0453ZM12.6492 14.3097L9.94769 17.6303C9.8351 17.7429 9.66629 17.7991 9.5537 17.6866L8.93461 17.1801C8.82203 17.0675 8.59692 17.1238 8.54063 17.2364L5.61399 20.8384C5.5014 20.951 5.5014 21.1761 5.67028 21.2324C5.61399 21.2887 5.72657 21.2887 5.78286 21.2887L17.4331 20.0505C17.602 20.0505 17.7145 19.8817 17.7145 19.7128C17.7145 19.6565 17.6582 19.6002 17.6582 19.544L13.0994 14.2535C12.9306 14.1972 12.7618 14.1971 12.6492 14.3097Z" stroke="#3E6930" stroke-width="1.25" stroke-linecap="round" stroke-linejoin="round"/>
<path d="M9.4975 8.06236L9.89148 4.51662C9.94777 4.06635 10.3418 3.72866 10.792 3.78495L24.6372 5.24824C25.0875 5.30453 25.4252 5.69851 25.3689 6.14873L23.9056 19.994C23.9056 20.388 23.4553 20.7256 23.0051 20.7256L19.4031 20.3317" stroke="#3E6930" stroke-width="1.25" stroke-linecap="round" stroke-linejoin="round"/>
<path d="M19.1216 17.4614L22.217 17.7991C22.3859 17.7991 22.4984 17.6865 22.5547 17.5177C22.5547 17.4614 22.5547 17.4051 22.4985 17.3489L19.1215 11.2142C19.0652 11.1016 18.8401 11.0454 18.7276 11.1016L18.5024 11.3268" stroke="#3E6930" stroke-width="1.25" stroke-linecap="round" stroke-linejoin="round"/>
</svg>
