<svg width="27" height="26" viewBox="0 0 27 26" fill="none" xmlns="http://www.w3.org/2000/svg">
<path d="M22.5 22.2083H4.5C3.2625 22.2083 2.25 21.2333 2.25 20.0417V8.72083C2.25 8.01667 2.5875 7.36667 3.20625 6.93333L13.5 0L23.7938 6.93333C24.4125 7.3125 24.75 8.01667 24.75 8.72083V20.0417C24.75 21.2333 23.7375 22.2083 22.5 22.2083Z" fill="#78909C"/>
<path d="M7.875 0.541748H19.125V17.3334H7.875V0.541748Z" fill="#AED581"/>
<path d="M7.3125 0V17.875H19.6875V0H7.3125ZM18.5625 16.7917H8.4375V1.08333H18.5625V16.7917Z" fill="#558B2F"/>
<path d="M19.125 1.62508C19.125 2.54591 18.9563 3.25008 18 3.25008C17.0438 3.25008 16.3125 2.54591 16.3125 1.62508C16.3125 0.704248 17.0438 0.541748 18 0.541748C18.9563 0.541748 19.125 0.704248 19.125 1.62508ZM9 0.541748C9.95625 0.541748 10.6875 0.704248 10.6875 1.62508C10.6875 2.54591 9.95625 3.25008 9 3.25008C8.04375 3.25008 7.875 2.54591 7.875 1.62508C7.875 0.704248 8.04375 0.541748 9 0.541748Z" fill="#558B2F"/>
<path d="M12.375 4.33333C12.375 4.62065 12.4935 4.8962 12.7045 5.09937C12.9155 5.30253 13.2016 5.41667 13.5 5.41667C13.7984 5.41667 14.0845 5.30253 14.2955 5.09937C14.5065 4.8962 14.625 4.62065 14.625 4.33333C14.625 4.04602 14.5065 3.77047 14.2955 3.5673C14.0845 3.36414 13.7984 3.25 13.5 3.25C13.2016 3.25 12.9155 3.36414 12.7045 3.5673C12.4935 3.77047 12.375 4.04602 12.375 4.33333Z" fill="#558B2F"/>
<path d="M10.125 10.8333C10.125 11.6952 10.4806 12.5219 11.1135 13.1313C11.7464 13.7408 12.6049 14.0833 13.5 14.0833C14.3951 14.0833 15.2535 13.7408 15.8865 13.1313C16.5194 12.5219 16.875 11.6952 16.875 10.8333C16.875 9.9713 16.5194 9.14465 15.8865 8.53516C15.2535 7.92566 14.3951 7.58325 13.5 7.58325C12.6049 7.58325 11.7464 7.92566 11.1135 8.53516C10.4806 9.14465 10.125 9.9713 10.125 10.8333Z" fill="#558B2F"/>
<path d="M22.5 22.2083H4.5C3.2625 22.2083 2.25 21.2333 2.25 20.0416V9.20825L13.5 16.2499L24.75 9.20825V20.0416C24.75 21.2333 23.7375 22.2083 22.5 22.2083Z" fill="#CFD8DC"/>
</svg>
