<svg width="35" height="35" viewBox="0 0 35 35" fill="none" xmlns="http://www.w3.org/2000/svg">
<path fill-rule="evenodd" clip-rule="evenodd" d="M10.2084 18.9583C11.746 18.9583 13.0057 20.1481 13.117 21.6573L13.125 21.875V26.25C13.125 27.7877 11.9352 29.0473 10.426 29.1587L10.2084 29.1667H5.83335C4.29574 29.1667 3.03603 27.9769 2.92469 26.4677L2.91669 26.25V21.875C2.91669 20.3373 4.10651 19.0777 5.61568 18.9663L5.83335 18.9583H10.2084ZM23.3334 24.7917C24.1388 24.7917 24.7917 25.4446 24.7917 26.25C24.7917 26.9979 24.2287 27.6143 23.5034 27.6985L23.3334 27.7083H17.5C16.6946 27.7083 16.0417 27.0554 16.0417 26.25C16.0417 25.5021 16.6046 24.8857 17.3299 24.8015L17.5 24.7917H23.3334ZM10.2084 21.875H5.83335V26.25H10.2084V21.875ZM29.1667 18.9583C29.9721 18.9583 30.625 19.6112 30.625 20.4167C30.625 21.2221 29.9721 21.875 29.1667 21.875H17.5C16.6946 21.875 16.0417 21.2221 16.0417 20.4167C16.0417 19.6112 16.6946 18.9583 17.5 18.9583H29.1667ZM10.2084 4.375C11.8192 4.375 13.125 5.68084 13.125 7.29167V11.6667C13.125 13.2775 11.8192 14.5833 10.2084 14.5833H5.83335C4.22252 14.5833 2.91669 13.2775 2.91669 11.6667V7.29167C2.91669 5.68084 4.22252 4.375 5.83335 4.375H10.2084ZM23.3334 10.2083C24.1388 10.2083 24.7917 10.8613 24.7917 11.6667C24.7917 12.4145 24.2287 13.0309 23.5034 13.1152L23.3334 13.125H17.5C16.6946 13.125 16.0417 12.4721 16.0417 11.6667C16.0417 10.9188 16.6046 10.3024 17.3299 10.2181L17.5 10.2083H23.3334ZM10.2084 7.29167H5.83335V11.6667H10.2084V7.29167ZM29.1667 4.375C29.9721 4.375 30.625 5.02792 30.625 5.83333C30.625 6.58121 30.0621 7.19761 29.3368 7.28186L29.1667 7.29167H17.5C16.6946 7.29167 16.0417 6.63874 16.0417 5.83333C16.0417 5.08545 16.6046 4.46905 17.3299 4.38481L17.5 4.375H29.1667Z" fill="#3E6930"/>
</svg>
