<svg width="23" height="23" viewBox="0 0 23 23" fill="none" xmlns="http://www.w3.org/2000/svg">
<path d="M12.4582 1.91669C9.81188 1.91669 7.66656 4.06199 7.66656 6.70835C7.66656 7.23762 8.09562 7.66669 8.6249 7.66669C9.15417 7.66669 9.58323 7.23762 9.58323 6.70835C9.58323 5.12054 10.8705 3.83335 12.4582 3.83335H16.2916C17.8794 3.83335 19.1666 5.12054 19.1666 6.70835V16.2917C19.1666 17.8795 17.8794 19.1667 16.2916 19.1667H12.4582C10.8705 19.1667 9.58323 17.8795 9.58323 16.2917C9.58323 15.7624 9.15417 15.3334 8.6249 15.3334C8.09562 15.3334 7.66656 15.7624 7.66656 16.2917C7.66656 18.938 9.81188 21.0834 12.4582 21.0834H16.2916C18.9379 21.0834 21.0832 18.938 21.0832 16.2917V6.70835C21.0832 4.06199 18.9379 1.91669 16.2916 1.91669H12.4582Z" fill="#3E6930"/>
<path d="M13.4166 10.5417C13.9459 10.5417 14.3749 10.9707 14.3749 11.5C14.3749 12.0293 13.9459 12.4584 13.4166 12.4584V10.5417Z" fill="#3E6930"/>
<path d="M5.47958 10.5417C5.56489 10.4365 5.64663 10.3344 5.72395 10.2369C5.95921 9.94015 6.15839 9.67958 6.29903 9.49279C6.36942 9.39931 6.42531 9.32409 6.4639 9.27183L6.50853 9.21116L6.52049 9.1948L6.52473 9.18899C6.52477 9.18893 6.52521 9.18832 5.74991 8.62503L6.52473 9.18899C6.83582 8.7608 6.74139 8.16082 6.3132 7.84972C5.88503 7.53863 5.28576 7.63354 4.97464 8.06167L4.97194 8.06538L4.96213 8.0788L4.92211 8.1332C4.88671 8.18115 4.83436 8.2516 4.76785 8.33992C4.63471 8.51676 4.44545 8.76439 4.22209 9.04609C3.77049 9.61566 3.19852 10.3003 2.67643 10.8224L1.99878 11.5L2.67643 12.1777C3.19852 12.6998 3.77049 13.3844 4.22209 13.9539C4.44545 14.2357 4.63471 14.4833 4.76785 14.6601C4.83436 14.7485 4.88671 14.8189 4.92211 14.8668L4.96213 14.9213L4.97194 14.9347L4.97417 14.9378C5.28529 15.3658 5.88503 15.4614 6.3132 15.1503C6.74139 14.8392 6.83631 14.2399 6.52521 13.8117L5.74991 14.375C6.52521 13.8117 6.52526 13.8118 6.52521 13.8117L6.52049 13.8053L6.50853 13.7889L6.4639 13.7282C6.42531 13.6759 6.36942 13.6008 6.29903 13.5073C6.15839 13.3205 5.95921 13.0599 5.72395 12.7631C5.64663 12.6656 5.56489 12.5636 5.47958 12.4584H13.4166V10.5417H5.47958Z" fill="#3E6930"/>
</svg>
