<svg width="35" height="35" viewBox="0 0 35 35" fill="none" xmlns="http://www.w3.org/2000/svg">
<g clip-path="url(#clip0_436_205)">
<path d="M12.5055 8.17621C5.7305 8.17621 0 12.3637 0 17.8287C0 20.6804 1.57028 23.3156 4.33439 25.1477L4.00907 28.5226C3.92868 29.3555 4.7747 29.9619 5.53513 29.6299L10.6892 27.3803C17.4074 28.1384 23.7156 24.6231 24.8379 19.4447C26.1396 13.4602 20.1731 8.17621 12.5055 8.17621Z" fill="#3E6930"/>
<path d="M18.9484 17.5149H7.2817C6.4067 17.5149 5.82336 17.2816 5.82336 16.9316C5.82336 16.5816 6.4067 16.3483 7.2817 16.3483H18.9484C19.8234 16.3483 20.4067 16.5816 20.4067 16.9316C20.4067 17.2816 19.8234 17.5149 18.9484 17.5149Z" fill="white"/>
<path d="M16.5 20.1667H7.16667C6.46667 20.1667 6 19.9333 6 19.5833C6 19.2333 6.46667 19 7.16667 19H16.5C17.2 19 17.6667 19.2333 17.6667 19.5833C17.6667 19.9333 17.2 20.1667 16.5 20.1667Z" fill="white"/>
<path d="M32.0329 7.39233C28.3834 4.65467 22.6473 4.579 18.8739 7.14282C24.628 9.35575 28.459 14.6379 26.8369 20.4678L29.8521 21.9814C30.5439 22.3287 31.3725 21.8641 31.433 21.0892L31.6294 18.5774C35.954 15.6899 36.1481 10.4794 32.0329 7.39233Z" fill="#3E6930"/>
</g>
<defs>
<clipPath id="clip0_436_205">
<rect width="35" height="35" fill="white"/>
</clipPath>
</defs>
</svg>
