<svg width="24" height="24" viewBox="0 0 24 24" fill="none" xmlns="http://www.w3.org/2000/svg">
<g clip-path="url(#clip0_122_5895)">
<path d="M13.4144 10.5869C13.7895 10.9621 14.0001 11.4708 14 12.0013C13.9999 12.5317 13.7891 13.0404 13.4139 13.4154C13.0388 13.7904 12.53 14.0011 11.9996 14.001C11.4691 14.0009 10.9605 13.7901 10.5854 13.4149" stroke="#183041" stroke-width="1.5" stroke-linecap="round" stroke-linejoin="round"/>
<path d="M7.319 16.673C8.72176 17.5507 10.3453 18.0109 12 18C15.6 18 18.6 16 21 12C19.728 9.88 18.288 8.322 16.68 7.326M13.82 6.18C13.221 6.05873 12.6112 5.99842 12 6C8.4 6 5.4 8 3 12C3.666 13.11 4.379 14.067 5.138 14.87" stroke="#183041" stroke-width="1.5" stroke-linecap="round" stroke-linejoin="round"/>
<path d="M21 3L3 21" stroke="#183041" stroke-width="1.5" stroke-linecap="round" stroke-linejoin="round"/>
</g>
<defs>
<clipPath id="clip0_122_5895">
<rect width="24" height="24" fill="white" transform="matrix(-1 0 0 1 24 0)"/>
</clipPath>
</defs>
</svg>
