<svg width="24" height="24" viewBox="0 0 24 24" fill="none" xmlns="http://www.w3.org/2000/svg">
<g clip-path="url(#clip0_125_6720)">
<g clip-path="url(#clip1_125_6720)">
<path d="M14 13C14 13.5304 13.7893 14.0391 13.4142 14.4142C13.0391 14.7893 12.5304 15 12 15C11.4696 15 10.9609 14.7893 10.5858 14.4142C10.2107 14.0391 10 13.5304 10 13C10 12.4696 10.2107 11.9609 10.5858 11.5858C10.9609 11.2107 11.4696 11 12 11C12.5304 11 13.0391 11.2107 13.4142 11.5858C13.7893 11.9609 14 12.4696 14 13Z" stroke="black" stroke-width="1.5" stroke-linecap="round" stroke-linejoin="round"/>
<path d="M3 13C5.4 17 8.4 19 12 19C15.6 19 18.6 17 21 13C18.6 9 15.6 7 12 7C8.4 7 5.4 9 3 13Z" stroke="#183041" stroke-width="1.5" stroke-linecap="round" stroke-linejoin="round"/>
</g>
</g>
<defs>
<clipPath id="clip0_125_6720">
<rect width="24" height="24" fill="white"/>
</clipPath>
<clipPath id="clip1_125_6720">
<rect width="24" height="24" fill="white" transform="matrix(-1 0 0 1 24 1)"/>
</clipPath>
</defs>
</svg>
